<svg id="Capa_1" enable-background="new 0 0 510.096 510.096" height="512" viewBox="0 0 510.096 510.096" width="512" xmlns="http://www.w3.org/2000/svg"><g><g><g><g><path d="m7.5 82.58h495.096v134.968h-495.096z" fill="#a7feeb"/></g><g><path d="m30.05 194.999v-112.419h-22.55v134.968h495.096v-22.549z" fill="#5fa6b0"/></g><g><path d="m7.5 217.548h495.096v209.968h-495.096z" fill="#c8d1da"/></g><g><path d="m29.987 405.03v-187.482h-22.487v209.968h495.096v-22.486z" fill="#adb9c8"/></g><g><path d="m37.58 112.588h314.952v74.96h-314.952z" fill="#f6e23d"/></g><g><path d="m58.261 166.867v-54.279h-20.681v74.96h314.952v-20.681z" fill="#e8ab4c"/></g><g><circle cx="397.544" cy="127.497" fill="#d15573" r="14.881"/></g><g><path d="m435.032 119.998h15v15h-15z" fill="#fff"/></g><g><path d="m465.032 149.984h15v15h-15z" fill="#fff"/></g><g><path d="m60.074 262.687h29.944v44.957h-29.944z" fill="#78777c"/></g><g><path d="m60.074 285.165h29.944v22.478h-29.944z" fill="#58575b"/></g><g><path d="m150.035 300.091h29.944v44.957h-29.944z" fill="#78777c"/></g><g><path d="m150.11 322.532h29.944v22.478h-29.944z" fill="#58575b"/></g><g><path d="m240.038 337.569h29.944v44.957h-29.944z" fill="#78777c"/></g><g><path d="m240.076 360.048h29.944v22.478h-29.944z" fill="#58575b"/></g><g><path d="m330.03 262.687h29.944v44.957h-29.944z" fill="#78777c"/></g><g><path d="m330.074 285.011h29.944v22.478h-29.944z" fill="#58575b"/></g><g><path d="m420.096 300.091h29.944v44.957h-29.944z" fill="#78777c"/></g><g><path d="m420.046 322.532h29.944v22.478h-29.944z" fill="#58575b"/></g></g></g><g><path d="m495.096 210.048h-450.064v15h450.064v194.968h-37.564v15h52.564v-239.968h-15z"/><path d="m0 75.08v359.936h412.532v-15h-397.532v-194.968h15.032v-15h-15.032v-119.968h480.096v89.968h15v-104.968z"/><path d="m427.532 420.016h15v15h-15z"/><path d="m360.032 105.088h-329.952v89.96h329.952zm-15 15v27.729c-7.968-3.809-11.997-12.486-27.5-12.249-19.881-.224-20.635 13.628-35 14-14.203-.314-15.269-14.27-34.995-14-19.803-.247-20.731 13.667-34.997 14-14.288-.35-15.206-14.253-34.994-14-19.713-.276-20.79 13.683-34.995 14-14.337-.366-15.129-14.228-34.989-14-19.649-.295-20.868 13.715-34.99 14-12.315-.325-14.595-10.495-27.494-13.291v-16.189zm-299.952 59.96v-27.728c7.965 3.81 11.994 12.485 27.494 12.248 19.876.224 20.629-13.627 34.99-14 14.2.314 15.264 14.271 34.989 14 19.803.246 20.729-13.666 34.995-14 14.288.35 15.206 14.253 34.994 14 19.714.276 20.792-13.683 34.997-14 14.341.365 15.132 14.228 34.995 14 19.654.295 20.872-13.715 35-14 12.318.325 14.598 10.496 27.5 13.292v16.189h-299.954z"/><path d="m397.545 105.116c-29.507.771-29.513 43.987-.001 44.762 29.507-.771 29.512-43.986.001-44.762zm-.001 15c9.698.172 9.7 14.589 0 14.762-9.699-.172-9.7-14.588 0-14.762z"/><path d="m465.032 119.998h15v15h-15z"/><path d="m435.032 149.984h15v15h-15z"/><path d="m82.546 390.048v-74.904h14.973v-59.957h-44.945v59.957h14.972v74.904zm-14.972-119.861h14.944v29.957h-14.944z"/><path d="m187.554 292.591h-14.98l-.042-37.551-15 .017.042 37.535h-14.964v59.957h14.93l.042 37.508 15-.017-.042-37.492h15.013v-59.957zm-15 44.957h-14.944v-29.957h14.943v29.957z"/><path d="m442.493 255.04-15 .017.042 37.535h-14.989v59.957h14.973v37.5h15v-37.5h14.972v-59.957h-14.956zm-.003 82.508h-14.944v-29.957h14.944z"/><path d="m247.511 255.048v75.021h-14.973v59.957h44.944v-59.957h-14.972v-75.021zm14.971 119.978h-14.944v-29.957h14.944z"/><path d="m352.546 390.048v-74.904h14.973v-59.957h-44.944v59.957h14.972v74.904zm-14.972-119.861h14.944v29.957h-14.944z"/></g></g></svg>